<svg width="64" height="64" viewBox="0 0 64 64" fill="none" xmlns="http://www.w3.org/2000/svg">
<g id="icon_02">
<rect width="64" height="64" fill="white"/>
<g id="Group">
<g id="Group_2">
<path id="Vector" d="M55.0001 44.7959V46.4821C55.0001 48.2086 53.6024 49.6061 51.8758 49.6061H44.593C42.8664 49.6061 41.4688 48.2086 41.4688 46.4821V44.7959H55.0001Z" stroke="#101010" stroke-width="1.3" stroke-linecap="round" stroke-linejoin="round"/>
<path id="Vector_2" d="M51.8427 29.3643V42.7592C51.8427 43.8853 50.8745 44.7959 49.6809 44.7959H40.8668L39.0626 52.0119C38.4765 54.1003 37.7094 55.6199 35.3838 54.9204C33.3498 54.2669 33.413 52.4973 34.0422 50.5066L36.3017 43.3826C36.8576 41.6317 38.3774 40.4497 40.0925 40.2443H40.1054L40.1169 40.2414L40.4861 40.2155H40.4962L44.7739 40.1365V37.2797H39.3614C38.3645 37.2797 37.5572 36.4725 37.5572 35.4758C37.5572 34.9774 37.7583 34.5264 38.0844 34.1989C38.4105 33.8728 38.8615 33.6718 39.3614 33.6718H44.7739V29.3643C46.1271 28.4436 47.3624 28.1377 48.4111 28.1377C50.504 28.1377 51.8398 29.3643 51.8398 29.3643H51.8427Z" stroke="#101010" stroke-width="1.3" stroke-linecap="round" stroke-linejoin="round"/>
<path id="Vector_3" d="M40.4888 40.2158C40.3652 40.2187 40.2417 40.2273 40.1196 40.2417" stroke="#101010" stroke-width="1.3" stroke-linecap="round" stroke-linejoin="round"/>
<path id="Vector_4" d="M48.2344 54.8686V49.6074" stroke="#101010" stroke-width="1.3" stroke-linecap="round" stroke-linejoin="round"/>
<path id="Vector_5" d="M43.7236 54.8691H52.7446" stroke="#101010" stroke-width="1.3" stroke-linecap="round" stroke-linejoin="round"/>
<path id="Vector_6" d="M48.385 25.7048C49.9629 25.7048 51.2421 24.4258 51.2421 22.848C51.2421 21.2702 49.9629 19.9912 48.385 19.9912C46.807 19.9912 45.5278 21.2702 45.5278 22.848C45.5278 24.4258 46.807 25.7048 48.385 25.7048Z" stroke="#101010" stroke-width="1.3" stroke-linecap="round" stroke-linejoin="round"/>
</g>
<g id="Group_3">
<path id="Vector_7" d="M9.59521 44.7959V46.4821C9.59521 48.2086 10.9929 49.6061 12.7195 49.6061H20.0023C21.729 49.6061 23.1266 48.2086 23.1266 46.4821V44.7959H9.59521Z" stroke="#101010" stroke-width="1.3" stroke-linecap="round" stroke-linejoin="round"/>
<path id="Vector_8" d="M12.7524 29.3643V42.7592C12.7524 43.8853 13.7206 44.7959 14.9143 44.7959H23.7284L25.5326 52.0119C26.1187 54.1003 26.8857 55.6199 29.2113 54.9204C31.2453 54.2669 31.1821 52.4973 30.5529 50.5066L28.2934 43.3826C27.7375 41.6317 26.2177 40.4497 24.5026 40.2443H24.4897L24.4782 40.2414L24.109 40.2155H24.099L19.8212 40.1365V37.2797H25.2338C26.2307 37.2797 27.038 36.4725 27.038 35.4758C27.038 34.9774 26.8368 34.5264 26.5107 34.1989C26.1847 33.8728 25.7337 33.6718 25.2338 33.6718H19.8212V29.3643C18.4681 28.4436 17.2328 28.1377 16.1841 28.1377C14.0912 28.1377 12.7553 29.3643 12.7553 29.3643H12.7524Z" stroke="#101010" stroke-width="1.3" stroke-linecap="round" stroke-linejoin="round"/>
<path id="Vector_9" d="M24.4771 40.2417C24.3536 40.2287 24.23 40.2187 24.1079 40.2158" stroke="#101010" stroke-width="1.3" stroke-linecap="round" stroke-linejoin="round"/>
<path id="Vector_10" d="M16.3608 49.6074V54.8686" stroke="#101010" stroke-width="1.3" stroke-linecap="round" stroke-linejoin="round"/>
<path id="Vector_11" d="M20.8715 54.8691H11.8506" stroke="#101010" stroke-width="1.3" stroke-linecap="round" stroke-linejoin="round"/>
<path id="Vector_12" d="M16.2101 25.7048C17.788 25.7048 19.0672 24.4258 19.0672 22.848C19.0672 21.2702 17.788 19.9912 16.2101 19.9912C14.6321 19.9912 13.353 21.2702 13.353 22.848C13.353 24.4258 14.6321 25.7048 16.2101 25.7048Z" stroke="#101010" stroke-width="1.3" stroke-linecap="round" stroke-linejoin="round"/>
</g>
<path id="Vector_13" d="M19.8184 37.2793H25.2309H39.3642H44.7767" stroke="#101010" stroke-width="1.3" stroke-linecap="round" stroke-linejoin="round"/>
<path id="Vector_14" d="M24.9494 27.9553C24.0602 26.5449 23.5675 24.8601 23.6249 23.0561C23.77 18.5116 27.4703 14.8117 32.0138 14.6667C37.0313 14.5072 41.1296 18.6064 40.9716 23.622C40.9213 25.2062 40.4372 26.6885 39.6371 27.9539M19.7322 17.736C20.0898 16.9317 20.5251 16.1676 21.0236 15.4552L18.8789 13.3137L22.2718 9.92112L24.4136 12.067C26.0224 10.938 27.884 10.1452 29.8979 9.79329V6.7627H34.6957V9.79329C36.7082 10.1452 38.5713 10.938 40.1787 12.067L42.3232 9.92112L45.7147 13.3137L43.5701 15.4552C44.0685 16.169 44.5038 16.9317 44.8629 17.736" stroke="url(#paint0_linear_326_1438)" stroke-width="1.3" stroke-linecap="round" stroke-linejoin="round"/>
</g>
</g>
<defs>
<linearGradient id="paint0_linear_326_1438" x1="27.4999" y1="12.0002" x2="32.2968" y2="27.9553" gradientUnits="userSpaceOnUse">
<stop stop-color="#064567"/>
<stop offset="1" stop-color="#E71139"/>
</linearGradient>
</defs>
</svg>
