<svg width="64" height="64" viewBox="0 0 64 64" fill="none" xmlns="http://www.w3.org/2000/svg">
<g id="icon_05">
<rect width="64" height="64" fill="white"/>
<g id="Group">
<path id="Vector" d="M32.48 43.2795C32.3904 43.2795 32.2988 43.2596 32.2152 43.2178L16.3667 35.3981C16.1656 35.2986 16.0363 35.0955 16.0343 34.8706C16.0303 34.6456 16.1537 34.4385 16.3528 34.335L25.9503 29.2546C26.2409 29.0994 26.6032 29.2108 26.7565 29.5035C26.9118 29.7941 26.8003 30.1564 26.5077 30.3097L17.9434 34.8447L32.478 42.0154L46.3237 35.0915L37.9187 31.1558C37.6201 31.0164 37.4907 30.6601 37.632 30.3615C37.7714 30.0629 38.1278 29.9335 38.4264 30.0748L47.9482 34.5341C48.1553 34.6316 48.2887 34.8387 48.2926 35.0676C48.2946 35.2966 48.1672 35.5076 47.9621 35.6091L32.7467 43.2158C32.6631 43.2576 32.5715 43.2795 32.48 43.2795Z" fill="#101010"/>
<path id="Vector_2" d="M26.5636 51.308C26.472 51.308 26.3805 51.2881 26.2949 51.2443L10.4463 43.2136C10.2891 43.1339 10.1736 42.9886 10.1338 42.8154C10.094 42.6422 10.1338 42.4611 10.2393 42.3197L16.1559 34.5001C16.3291 34.2711 16.6397 34.1995 16.8965 34.3249L32.7449 42.1445C32.9042 42.2222 33.0196 42.3675 33.0614 42.5387C33.1032 42.7099 33.0674 42.8911 32.9619 43.0344L27.0454 51.0651C26.9299 51.2224 26.7487 51.308 26.5636 51.308ZM11.6229 42.471L26.3825 49.9503L31.5763 42.901L16.8088 35.6169L11.621 42.473L11.6229 42.471Z" fill="#101010"/>
<path id="Vector_3" d="M37.9748 51.5213C37.7817 51.5213 37.5926 51.4277 37.4771 51.2545L31.9826 43.0129C31.8871 42.8695 31.8592 42.6943 31.903 42.5291C31.9468 42.3639 32.0603 42.2245 32.2136 42.1488L47.4289 34.5422C47.6897 34.4128 48.0063 34.4884 48.1795 34.7253L53.885 42.545C53.9865 42.6863 54.0244 42.8635 53.9846 43.0328C53.9447 43.202 53.8332 43.3453 53.678 43.4269L38.2516 51.4576C38.164 51.5034 38.0684 51.5253 37.9768 51.5253L37.9748 51.5213ZM33.3522 42.9133L38.1739 50.1457L52.5094 42.6844L47.5106 35.8342L33.3522 42.9133Z" fill="#101010"/>
<path id="Vector_4" d="M47.9068 52.1538C47.5763 52.1538 47.3096 51.887 47.3096 51.5566V45.7515C47.3096 45.4211 47.5763 45.1543 47.9068 45.1543C48.2373 45.1543 48.504 45.4211 48.504 45.7515V51.5566C48.504 51.887 48.2373 52.1538 47.9068 52.1538Z" fill="#101010"/>
<path id="Vector_5" d="M32.2693 59.7614C32.0484 59.7614 31.8354 59.6379 31.7319 59.4249C31.5866 59.1283 31.71 58.77 32.0066 58.6266L47.644 51.02C47.9406 50.8746 48.299 50.9981 48.4423 51.2947C48.5877 51.5913 48.4642 51.9496 48.1675 52.093L32.5301 59.6996C32.4465 59.7414 32.3569 59.7594 32.2693 59.7594V59.7614Z" fill="#101010"/>
<path id="Vector_6" d="M32.2693 59.7613C32.1857 59.7613 32.0981 59.7434 32.0165 59.7056L16.168 52.3099C15.8694 52.1706 15.7399 51.8142 15.8793 51.5156C16.0187 51.217 16.375 51.0876 16.6737 51.227L32.5221 58.6226C32.8207 58.762 32.9502 59.1183 32.8108 59.4169C32.7093 59.6339 32.4942 59.7613 32.2693 59.7613Z" fill="#101010"/>
<path id="Vector_7" d="M16.4205 52.365C16.09 52.365 15.8232 52.0982 15.8232 51.7677V45.6402C15.8232 45.3097 16.09 45.043 16.4205 45.043C16.7509 45.043 17.0177 45.3097 17.0177 45.6402V51.7677C17.0177 52.0982 16.7509 52.365 16.4205 52.365Z" fill="#101010"/>
<path id="Vector_8" d="M32.48 59.6573C32.1496 59.6573 31.8828 59.3906 31.8828 59.0601V53.4302C31.8828 53.0998 32.1496 52.833 32.48 52.833C32.8105 52.833 33.0773 53.0998 33.0773 53.4302V59.0601C33.0773 59.3906 32.8105 59.6573 32.48 59.6573Z" fill="#101010"/>
<path id="Vector_9" d="M33.1192 33.0344H31.7336C30.1888 33.0344 28.9327 31.7782 28.9327 30.2334V26.9765C28.9327 25.8995 28.4489 24.8703 27.6028 24.1496C25.9385 22.7322 24.9829 20.6658 24.9829 18.482C24.9829 16.4355 25.8389 14.4587 27.33 13.0572C28.843 11.6358 30.8219 10.9231 32.9022 11.0545C36.6767 11.2894 39.7345 14.4387 39.8659 18.2212C39.9455 20.5344 38.974 22.7103 37.2003 24.1934C36.386 24.8743 35.9202 25.8876 35.9202 26.9785V30.2354C35.9202 31.7802 34.664 33.0364 33.1192 33.0364V33.0344ZM32.4224 12.231C30.8238 12.231 29.3189 12.8242 28.1483 13.9251C26.8782 15.1196 26.1774 16.7361 26.1774 18.48C26.1774 20.3135 26.9797 22.0494 28.3772 23.2399C29.4901 24.1875 30.1271 25.5491 30.1271 26.9765V30.2334C30.1271 31.1193 30.8477 31.8399 31.7336 31.8399H33.1192C34.0051 31.8399 34.7257 31.1193 34.7257 30.2334V26.9765C34.7257 25.5332 35.3488 24.1835 36.4338 23.2757C37.9229 22.0315 38.7391 20.202 38.6715 18.261C38.562 15.0857 35.9959 12.444 32.8285 12.2449C32.6932 12.237 32.5578 12.233 32.4224 12.233V12.231Z" fill="url(#paint0_linear_326_1380)"/>
<path id="Vector_10" d="M32.4264 8.44725C32.4264 8.44725 32.4185 8.44725 32.4145 8.44725C32.084 8.44128 31.8232 8.16854 31.8292 7.83808L31.885 5.05501C31.891 4.72852 32.1577 4.46973 32.4822 4.46973C32.4862 4.46973 32.4901 4.46973 32.4941 4.46973C32.8246 4.4757 33.0854 4.74843 33.0795 5.0789L33.0237 7.86197C33.0177 8.18845 32.7509 8.44725 32.4264 8.44725Z" fill="url(#paint1_linear_326_1380)"/>
<path id="Vector_11" d="M40.1325 12.0303C39.9752 12.0303 39.8199 11.9686 39.7025 11.8472C39.4735 11.6103 39.4815 11.232 39.7184 11.0031L41.7251 9.07407C41.962 8.84513 42.3403 8.8531 42.5693 9.08999C42.7982 9.32689 42.7902 9.70514 42.5533 9.93407L40.5466 11.8631C40.4311 11.9746 40.2818 12.0303 40.1325 12.0303Z" fill="url(#paint2_linear_326_1380)"/>
<path id="Vector_12" d="M45.7945 19.4006C45.7945 19.4006 45.7865 19.4006 45.7825 19.4006L42.9994 19.3448C42.669 19.3389 42.4082 19.0661 42.4142 18.7357C42.4201 18.4092 42.6869 18.1504 43.0114 18.1504C43.0154 18.1504 43.0194 18.1504 43.0233 18.1504L45.8064 18.2061C46.1369 18.2121 46.3977 18.4848 46.3917 18.8153C46.3857 19.1418 46.119 19.4006 45.7945 19.4006Z" fill="url(#paint3_linear_326_1380)"/>
<path id="Vector_13" d="M40.7217 28.8463C40.5644 28.8463 40.4092 28.7845 40.2918 28.6631L38.3626 26.6564C38.1337 26.4195 38.1417 26.0413 38.3786 25.8124C38.6155 25.5834 38.9938 25.5914 39.2227 25.8283L41.1517 27.835C41.3807 28.0719 41.3727 28.4501 41.1358 28.679C41.0203 28.7905 40.871 28.8463 40.7217 28.8463Z" fill="url(#paint4_linear_326_1380)"/>
<path id="Vector_14" d="M22.612 28.9083C22.4547 28.9083 22.2994 28.8465 22.182 28.7251C21.953 28.4882 21.961 28.11 22.1979 27.881L24.2046 25.952C24.4415 25.7231 24.8197 25.731 25.0487 25.9679C25.2776 26.2048 25.2696 26.5831 25.0327 26.812L23.0261 28.741C22.9106 28.8525 22.7613 28.9083 22.612 28.9083Z" fill="url(#paint5_linear_326_1380)"/>
<path id="Vector_15" d="M21.7398 19.4543C21.7398 19.4543 21.7319 19.4543 21.7279 19.4543L18.9448 19.3986C18.6144 19.3926 18.3535 19.1198 18.3595 18.7894C18.3654 18.4629 18.6322 18.2041 18.9567 18.2041C18.9607 18.2041 18.9647 18.2041 18.9687 18.2041L21.7517 18.2598C22.0822 18.2658 22.343 18.5386 22.337 18.869C22.331 19.1955 22.0643 19.4543 21.7398 19.4543Z" fill="url(#paint6_linear_326_1380)"/>
<path id="Vector_16" d="M24.477 12.1695C24.3198 12.1695 24.1645 12.1078 24.0471 11.9863L22.1181 9.97967C21.8891 9.74277 21.897 9.36453 22.1339 9.13559C22.3708 8.90665 22.7491 8.91462 22.978 9.15152L24.9071 11.1582C25.136 11.3951 25.128 11.7733 24.8911 12.0023C24.7757 12.1137 24.6263 12.1695 24.477 12.1695Z" fill="url(#paint7_linear_326_1380)"/>
</g>
</g>
<defs>
<linearGradient id="paint0_linear_326_1380" x1="32.4267" y1="11.0391" x2="32.4267" y2="33.0364" gradientUnits="userSpaceOnUse">
<stop stop-color="#064567"/>
<stop offset="1" stop-color="#E71139"/>
</linearGradient>
<linearGradient id="paint1_linear_326_1380" x1="32.4543" y1="4.46973" x2="32.4543" y2="8.44725" gradientUnits="userSpaceOnUse">
<stop stop-color="#064567"/>
<stop offset="1" stop-color="#E71139"/>
</linearGradient>
<linearGradient id="paint2_linear_326_1380" x1="41.1359" y1="8.90723" x2="41.1359" y2="12.0303" gradientUnits="userSpaceOnUse">
<stop stop-color="#064567"/>
<stop offset="1" stop-color="#E71139"/>
</linearGradient>
<linearGradient id="paint3_linear_326_1380" x1="44.4029" y1="18.1504" x2="44.4029" y2="19.4006" gradientUnits="userSpaceOnUse">
<stop stop-color="#064567"/>
<stop offset="1" stop-color="#E71139"/>
</linearGradient>
<linearGradient id="paint4_linear_326_1380" x1="39.7572" y1="25.6455" x2="39.7572" y2="28.8463" gradientUnits="userSpaceOnUse">
<stop stop-color="#064567"/>
<stop offset="1" stop-color="#E71139"/>
</linearGradient>
<linearGradient id="paint5_linear_326_1380" x1="23.6153" y1="25.7852" x2="23.6153" y2="28.9083" gradientUnits="userSpaceOnUse">
<stop stop-color="#064567"/>
<stop offset="1" stop-color="#E71139"/>
</linearGradient>
<linearGradient id="paint6_linear_326_1380" x1="20.3482" y1="18.2041" x2="20.3482" y2="19.4543" gradientUnits="userSpaceOnUse">
<stop stop-color="#064567"/>
<stop offset="1" stop-color="#E71139"/>
</linearGradient>
<linearGradient id="paint7_linear_326_1380" x1="23.5125" y1="8.96875" x2="23.5125" y2="12.1695" gradientUnits="userSpaceOnUse">
<stop stop-color="#064567"/>
<stop offset="1" stop-color="#E71139"/>
</linearGradient>
</defs>
</svg>
