<svg width="64" height="64" viewBox="0 0 64 64" fill="none" xmlns="http://www.w3.org/2000/svg">
<g id="icon_06">
<rect width="64" height="64" fill="white"/>
<g id="Group">
<path id="Vector" d="M19.9063 20.412L14.8555 17.2373L4.74251 33.3284L9.79338 36.5031L19.9063 20.412Z" stroke="url(#paint0_linear_326_1424)" stroke-width="1.3" stroke-linecap="round" stroke-linejoin="round"/>
<path id="Vector_2" d="M55.0544 35.3398L60.1523 32.2412L50.282 16.0001L45.1841 19.0987L55.0544 35.3398Z" stroke="url(#paint1_linear_326_1424)" stroke-width="1.3" stroke-linecap="round" stroke-linejoin="round"/>
<path id="Vector_3" d="M38.1726 46.7036C38.5569 47.4914 38.515 48.4593 37.9797 49.2293C37.4939 49.9282 36.7138 50.3037 35.9235 50.3037C35.4314 50.3037 34.9341 50.1579 34.499 49.8547L10.7505 35.0596" stroke="black" stroke-width="1.3" stroke-linecap="round" stroke-linejoin="round"/>
<path id="Vector_4" d="M31.0083 41.7217L38.174 46.7033L39.0264 47.2957C40.1604 48.0847 41.7181 47.8031 42.5084 46.6703C43.1426 45.7569 43.0855 44.5658 42.4437 43.726" stroke="black" stroke-width="1.3" stroke-linecap="round" stroke-linejoin="round"/>
<path id="Vector_5" d="M36.6328 33.5938L45.62 39.8452C46.754 40.6329 47.0331 42.1907 46.2453 43.3248C45.4563 44.4589 43.8974 44.7405 42.7633 43.9502L41.8361 43.3045L41.8297 43.3007L33.7432 37.6797" stroke="black" stroke-width="1.3" stroke-linecap="round" stroke-linejoin="round"/>
<path id="Vector_6" d="M53.8982 33.4385L50.2095 37.1261" stroke="black" stroke-width="1.3" stroke-linecap="round" stroke-linejoin="round"/>
<path id="Vector_7" d="M46.4432 21.175C44.6026 22.0503 42.8648 22.5983 40.801 22.2418C38.6027 21.8625 36.544 20.4252 34.2429 20.736C33.0404 20.8997 31.9698 21.5936 30.9347 22.1822C29.5813 22.9497 24.0482 25.587 27.4451 27.2602C29.5217 28.2852 32.0548 27.8272 34.1364 26.8137C34.6856 26.546 35.2324 26.2365 35.8412 26.1604C36.8763 26.0284 37.4332 26.8416 38.1334 27.4479C39.0898 28.2725 40.0716 29.0679 41.0636 29.8468C43.0259 31.3855 45.0314 32.8685 46.9836 34.4174C47.7751 35.0466 48.5679 35.6745 49.3595 36.3024C50.4935 37.0902 50.7726 38.648 49.9848 39.7821C49.1958 40.9161 47.6369 41.1978 46.5028 40.4074L36.6721 33.5725" stroke="black" stroke-width="1.3" stroke-linecap="round" stroke-linejoin="round"/>
<path id="Vector_8" d="M31.8861 21.6379C31.0273 21.081 29.6612 21.2395 28.6971 21.322C25.5196 21.5935 22.29 22.2607 19.1797 21.5567" stroke="black" stroke-width="1.3" stroke-linecap="round" stroke-linejoin="round"/>
</g>
</g>
<defs>
<linearGradient id="paint0_linear_326_1424" x1="16.5" y1="21" x2="11.9992" y2="36.9998" gradientUnits="userSpaceOnUse">
<stop stop-color="#064567"/>
<stop offset="1" stop-color="#E71139"/>
</linearGradient>
<linearGradient id="paint1_linear_326_1424" x1="50.5004" y1="16.0005" x2="56.0014" y2="38.0002" gradientUnits="userSpaceOnUse">
<stop stop-color="#E71139"/>
<stop offset="1" stop-color="#064567"/>
</linearGradient>
</defs>
</svg>
