<svg width="64" height="64" viewBox="0 0 64 64" fill="none" xmlns="http://www.w3.org/2000/svg">
<g id="icon_01">
<rect width="64" height="64" fill="white"/>
<g id="Group">
<path id="Vector" d="M29.2695 55.9774C29.1839 55.9774 29.0983 55.9591 29.0148 55.9224C26.435 54.7365 24.1488 52.0997 22.4045 48.2974C21.1696 45.6076 20.2812 42.5083 19.7596 39.0829C19.7596 39.0768 19.7595 39.0707 19.7575 39.0646C19.4192 36.8517 19.248 34.547 19.248 32.2139C19.248 29.8807 19.4192 27.5741 19.7575 25.3611V25.3428C20.2812 21.9175 21.1716 18.8181 22.4065 16.1284C24.1487 12.3281 26.4331 9.69338 29.0087 8.50744C29.2023 8.41778 29.4284 8.43612 29.6057 8.55635C29.783 8.67453 29.8849 8.8783 29.8747 9.09022C29.8747 9.1269 29.8706 9.16357 29.8706 9.20229C29.8706 10.484 30.9139 11.5293 32.1977 11.5293C33.4814 11.5293 34.5206 10.4881 34.5247 9.20637C34.5084 8.99241 34.6042 8.78457 34.7794 8.65823C34.9628 8.52782 35.2032 8.50744 35.405 8.60729C37.895 9.84009 40.1039 12.4402 41.7932 16.1264C43.028 18.8161 43.9165 21.9154 44.4381 25.3408C44.4381 25.3469 44.4382 25.353 44.4402 25.3591C44.7785 27.57 44.9496 29.8767 44.9496 32.2098C44.9496 34.543 44.7785 36.8496 44.4402 39.0626C44.4402 39.0687 44.4401 39.0748 44.4381 39.0809C43.9165 42.5063 43.026 45.6056 41.7932 48.2953C40.0999 51.9917 37.8849 54.5958 35.3867 55.8246C35.0851 55.9733 34.7163 55.849 34.5675 55.5454C34.4188 55.2418 34.5431 54.875 34.8467 54.7263C37.0902 53.6218 39.1075 51.2214 40.6826 47.7839C41.8502 45.2388 42.7305 42.17 43.2277 38.9118C43.2277 38.9057 43.2277 38.8995 43.2297 38.8934C43.5598 36.7376 43.727 34.49 43.727 32.2098C43.727 29.9297 43.5598 27.6821 43.2297 25.5262C43.2297 25.5201 43.2298 25.514 43.2277 25.5058C42.7305 22.2455 41.8502 19.1788 40.6826 16.6337C39.2908 13.5976 37.5548 11.3704 35.6231 10.1315C35.2115 11.6373 33.8319 12.7458 32.1997 12.7458C30.5675 12.7458 29.1228 11.5844 28.7478 10.0255C26.7509 11.2379 24.9556 13.5018 23.5191 16.6337C22.3515 19.1788 21.4712 22.2476 20.974 25.5058C20.974 25.5119 20.974 25.5181 20.9719 25.5242C20.6418 27.6821 20.4728 29.9296 20.4728 32.2078C20.4728 34.4859 20.6398 36.7335 20.9719 38.8914C20.9719 38.8975 20.972 38.9036 20.974 38.9118C21.4712 42.1721 22.3515 45.2388 23.5191 47.7839C25.139 51.3172 27.2175 53.7461 29.5283 54.8078C29.836 54.9484 29.9705 55.3111 29.8279 55.6188C29.7239 55.8429 29.5038 55.9754 29.2715 55.9754L29.2695 55.9774Z" fill="#101010"/>
<path id="Vector_2" d="M20.7536 48.7595C17.424 48.7595 14.7037 47.9954 12.8025 46.514C12.5356 46.3062 12.4887 45.9231 12.6966 45.6561C12.9044 45.3892 13.2895 45.3423 13.5544 45.5502C15.5901 47.1375 18.9095 47.8059 22.9014 47.433C25.6889 47.1722 28.7923 46.3979 31.8733 45.1956C33.909 44.4009 35.9385 43.4228 37.909 42.2838C39.8652 41.1549 41.7175 39.8956 43.4149 38.5385C43.4251 38.5283 43.4353 38.5202 43.4475 38.51C46.0293 36.4458 48.2504 34.1452 49.8744 31.8569C52.0588 28.778 53.1286 25.8335 52.9676 23.3455C52.9452 23.0093 53.202 22.7179 53.5382 22.6955C53.8785 22.6751 54.1658 22.9298 54.1882 23.266C54.3675 26.0373 53.2202 29.2528 50.8708 32.564C49.1897 34.9338 46.8994 37.3098 44.2443 39.4371C44.2341 39.4473 44.2218 39.4555 44.2116 39.4656C42.4572 40.8696 40.5417 42.1737 38.5203 43.3413C36.4969 44.511 34.4082 45.5155 32.3176 46.3327C29.1306 47.5756 25.9151 48.3785 23.0134 48.6495C22.2309 48.7229 21.4771 48.7595 20.7516 48.7595H20.7536Z" fill="#101010"/>
<path id="Vector_3" d="M10.5999 41.4652C10.2719 41.4652 9.9988 41.2044 9.98861 40.8723C9.90507 38.1662 11.0584 35.0485 13.3203 31.8596C15.0014 29.4918 17.2917 27.1158 19.9469 24.9864C19.9571 24.9763 19.9693 24.9681 19.9795 24.9579C21.734 23.554 23.6493 22.2498 25.6707 21.0822C27.6962 19.9126 29.7828 18.906 31.8735 18.0909C35.0604 16.8479 38.276 16.0451 41.1757 15.7741C45.355 15.3828 48.7905 16.0491 51.1073 17.6997C51.3824 17.8953 51.4456 18.2763 51.25 18.5514C51.0544 18.8265 50.6733 18.8917 50.3982 18.6941C48.3239 17.2147 45.1757 16.6258 41.2898 16.9885C38.5022 17.2493 35.3987 18.0237 32.3177 19.2259C30.2841 20.0206 28.2525 20.9987 26.282 22.1378C24.3259 23.2666 22.4736 24.5259 20.7762 25.883C20.766 25.8932 20.7559 25.9014 20.7436 25.9116C18.1619 27.9778 15.9408 30.2763 14.3167 32.5646C12.2098 35.5356 11.1338 38.3944 11.2092 40.8335C11.2194 41.1718 10.9545 41.453 10.6162 41.4632C10.6101 41.4632 10.604 41.4632 10.5979 41.4632L10.5999 41.4652Z" fill="#101010"/>
<path id="Vector_4" d="M43.4333 48.7574C43.0665 48.7574 42.6936 48.7472 42.3105 48.7289C37.1674 48.4783 31.258 46.5649 25.6707 43.3392C20.0833 40.1136 15.472 35.9526 12.6844 31.6225C9.81737 27.1702 9.20606 23.0459 10.9605 20.0057C12.715 16.9654 16.5927 15.4331 21.8826 15.6898C27.0258 15.9405 32.9351 17.8539 38.5225 21.0795C44.1099 24.3052 48.7212 28.4662 51.5087 32.7962C54.3758 37.2486 54.9871 41.3729 53.2326 44.4131C51.6045 47.2332 48.1465 48.7574 43.4333 48.7574ZM26.282 42.2817C31.7043 45.4116 37.416 47.2679 42.3696 47.5083C47.1786 47.7427 50.659 46.4263 52.173 43.8018C53.687 41.1793 53.0859 37.5053 50.4796 33.4585C47.796 29.2894 43.3314 25.269 37.9091 22.1391C32.4868 19.0092 26.7731 17.1529 21.8215 16.9125C17.0146 16.6781 13.5321 17.9945 12.0181 20.619C10.5041 23.2415 11.1052 26.9155 13.7114 30.9623C16.3951 35.1314 20.8597 39.1518 26.282 42.2817Z" fill="#101010"/>
<path id="Vector_5" d="M32.1957 59.1637C30.2395 59.1637 28.646 57.5723 28.646 55.6141C28.646 53.6559 30.2374 52.0645 32.1957 52.0645C34.1539 52.0645 35.7453 53.6559 35.7453 55.6141C35.7453 57.5723 34.1539 59.1637 32.1957 59.1637ZM32.1957 53.2891C30.9139 53.2891 29.8686 54.3324 29.8686 55.6161C29.8686 56.8999 30.9119 57.9432 32.1957 57.9432C33.4794 57.9432 34.5227 56.8999 34.5227 55.6161C34.5227 54.3324 33.4794 53.2891 32.1957 53.2891Z" fill="#101010"/>
<path id="Vector_6" d="M35.1319 9.76652C34.7977 9.76652 34.5267 9.49958 34.5206 9.16336C34.5023 7.9 33.4589 6.873 32.1956 6.873C30.9322 6.873 29.9297 7.84702 29.8726 9.08797C29.8563 9.42622 29.5791 9.68908 29.2327 9.67074C28.8945 9.65444 28.6357 9.36918 28.65 9.03092C28.7376 7.13383 30.2944 5.65039 32.1936 5.65039C34.0927 5.65039 35.7126 7.21738 35.7411 9.14503C35.7452 9.48329 35.4762 9.76041 35.138 9.76448C35.1359 9.76448 35.1319 9.76448 35.1298 9.76448L35.1319 9.76652Z" fill="#101010"/>
<path id="Vector_7" d="M52.45 24.1462C50.4939 24.1462 48.9004 22.5548 48.9004 20.5965C48.9004 18.6383 50.4918 17.0469 52.45 17.0469C54.4083 17.0469 55.9998 18.6383 55.9998 20.5965C55.9998 22.5548 54.4083 24.1462 52.45 24.1462ZM52.45 18.2715C51.1683 18.2715 50.123 19.3148 50.123 20.5986C50.123 21.8823 51.1663 22.9256 52.45 22.9256C53.7338 22.9256 54.7772 21.8823 54.7772 20.5986C54.7772 19.3148 53.7338 18.2715 52.45 18.2715Z" fill="#101010"/>
<path id="Vector_8" d="M11.4375 47.2175C9.48126 47.2175 7.8877 45.626 7.8877 43.6678C7.8877 41.7096 9.47922 40.1182 11.4375 40.1182C13.3957 40.1182 14.9871 41.7096 14.9871 43.6678C14.9871 45.626 13.3957 47.2175 11.4375 47.2175ZM11.4375 41.3428C10.1557 41.3428 9.11031 42.3861 9.11031 43.6699C9.11031 44.9536 10.1537 45.9969 11.4375 45.9969C12.7212 45.9969 13.7645 44.9536 13.7645 43.6699C13.7645 42.3861 12.7212 41.3428 11.4375 41.3428Z" fill="#101010"/>
<path id="Union" fill-rule="evenodd" clip-rule="evenodd" d="M29.5445 25.2913V23.4062C29.5445 23.068 29.8176 22.7949 30.1559 22.7949C30.4941 22.7949 30.7672 23.068 30.7672 23.4062V25.2913H33.2898V23.4062C33.2898 23.068 33.5628 22.7949 33.9011 22.7949C34.2394 22.7949 34.5124 23.068 34.5124 23.4062V25.2965C36.4403 25.3995 37.9786 27 37.9786 28.955C37.9786 29.9331 37.5975 30.8541 36.9067 31.5449C36.7323 31.7193 36.5433 31.874 36.3423 32.0077C37.3278 32.6648 37.9786 33.7865 37.9786 35.058C37.9786 36.0361 37.5975 36.9572 36.9067 37.648C36.2622 38.2925 35.4172 38.6674 34.5124 38.7147V41.0222C34.5124 41.3604 34.2394 41.6335 33.9011 41.6335C33.5628 41.6335 33.2898 41.3604 33.2898 41.0222V38.7198H30.7672V41.0222C30.7672 41.3604 30.4941 41.6335 30.1559 41.6335C29.8176 41.6335 29.5445 41.3604 29.5445 41.0222V38.7198H26.8262C26.4879 38.7198 26.2149 38.4467 26.2149 38.1085C26.2149 37.7702 26.4879 37.4972 26.8262 37.4972H27.7411V32.0554C27.7398 32.039 27.7392 32.0224 27.7392 32.0056C27.7392 31.9888 27.7398 31.9722 27.7411 31.9558V26.5139H26.8242C26.4859 26.5139 26.2129 26.2408 26.2129 25.9026C26.2129 25.5643 26.4859 25.2913 26.8242 25.2913H28.3525H29.5445ZM28.9638 32.6169V37.4972H34.3168C34.9689 37.4972 35.5823 37.2445 36.0428 36.784C36.5033 36.3234 36.756 35.7101 36.756 35.058C36.756 33.7132 35.6616 32.6169 34.3147 32.6169H28.9638ZM28.9638 26.5139V31.3941H34.3168C34.9689 31.3941 35.5823 31.1415 36.0428 30.6809C36.5033 30.2204 36.756 29.6071 36.756 28.955C36.756 27.6101 35.6617 26.5139 34.3147 26.5139H28.9638Z" fill="url(#paint0_linear_326_1402)"/>
</g>
</g>
<defs>
<linearGradient id="paint0_linear_326_1402" x1="26" y1="22.9993" x2="38.5" y2="40.9993" gradientUnits="userSpaceOnUse">
<stop stop-color="#064567"/>
<stop offset="1" stop-color="#E71139"/>
</linearGradient>
</defs>
</svg>
