<svg width="64" height="64" viewBox="0 0 64 64" fill="none" xmlns="http://www.w3.org/2000/svg">
<g id="icon_04">
<rect width="64" height="64" fill="white"/>
<g id="Group 8">
<g id="Group">
<path id="Vector" d="M39.2722 49.9427L39.2719 49.943C38.8328 50.3821 38.2506 50.6247 37.6297 50.6247H27.7548C27.5276 50.6247 27.3446 50.4417 27.3446 50.2145C27.3446 49.9873 27.5276 49.8043 27.7548 49.8043H37.6297C38.0296 49.8043 38.4084 49.6473 38.6923 49.3635C38.9762 49.0796 39.1331 48.7008 39.1331 48.3008C39.1331 47.4718 38.4587 46.7974 37.6297 46.7974H24.495C24.2678 46.7974 24.0848 46.6144 24.0848 46.3872C24.0848 46.16 24.2678 45.977 24.495 45.977H37.6297C38.9111 45.977 39.9535 47.0195 39.9535 48.3008C39.9535 48.9202 39.7127 49.5041 39.2722 49.9427Z" fill="#101010" stroke="#101010" stroke-width="0.422233"/>
<path id="Vector_2" d="M38.6507 54.4501C38.4235 54.4501 38.2405 54.2671 38.2405 54.0399C38.2405 53.8127 38.4235 53.6297 38.6507 53.6297C39.0507 53.6297 39.4295 53.4728 39.7134 53.1889C39.9973 52.905 40.1542 52.5262 40.1542 52.1263C40.1542 51.2972 39.4798 50.6228 38.6507 50.6228H27.7549C27.5277 50.6228 27.3447 50.4398 27.3447 50.2126C27.3447 49.9854 27.5277 49.8024 27.7549 49.8024H38.6507C39.9321 49.8024 40.9746 50.8449 40.9746 52.1263C40.9746 52.7453 40.7339 53.3275 40.2929 53.7684C39.8539 54.2075 39.2716 54.4501 38.6507 54.4501Z" fill="#101010" stroke="#101010" stroke-width="0.422233"/>
<path id="Vector_3" d="M42.0053 58.0331C41.5391 58.4991 40.9244 58.7661 40.2694 58.7876L40.2687 58.7869H40.1812H19.2117C17.5779 58.7869 16.0291 58.1678 14.8465 57.0413L14.8464 57.0412L12.649 54.9495L12.649 54.9495C11.7939 54.1356 10.6732 53.6859 9.49214 53.6859H5.62132C5.39412 53.6859 5.21112 53.5029 5.21112 53.2757V43.0737C5.21112 42.8465 5.39412 42.6635 5.62132 42.6635H18.5034C20.3403 42.6635 22.0657 43.3786 23.364 44.6769L27.2742 48.587C27.6975 49.0104 28.0015 49.5368 28.1534 50.1113L28.1534 50.1114C28.4497 51.2302 28.1493 52.4316 27.3678 53.2774L27.0403 53.6318H27.5228H40.1046C40.8095 53.6318 41.5056 53.9235 42.0113 54.433C42.5014 54.927 42.7655 55.5652 42.7598 56.2293C42.7541 56.9113 42.4863 57.5502 42.0053 58.0331ZM6.03152 52.6544V52.8655H6.24264H9.49214C10.8857 52.8655 12.2066 53.3935 13.2153 54.3543L13.2153 54.3544L15.4127 56.4462L15.5583 56.2932L15.4127 56.4462C16.4419 57.4258 17.7904 57.9665 19.2117 57.9665H40.1812C40.6495 57.9665 41.0925 57.7826 41.424 57.4511C41.7533 57.1218 41.9347 56.6858 41.9394 56.2229L41.9394 56.2219C41.9418 55.773 41.7578 55.341 41.4287 55.0095L41.4286 55.0095C41.0777 54.6562 40.5956 54.4501 40.1046 54.4501H25.255C25.0414 54.4501 24.8639 54.2875 24.8462 54.0742L24.8462 54.0741C24.8284 53.8621 24.9762 53.6707 25.1865 53.6351C25.7111 53.5469 26.188 53.298 26.5645 52.9192L26.6925 52.7913L26.5432 52.642L26.6925 52.7913C27.338 52.1458 27.593 51.1984 27.3582 50.3177C27.2429 49.8839 27.0127 49.4847 26.6925 49.1645L22.7823 45.2544C21.6389 44.1109 20.1188 43.4818 18.5034 43.4818H6.24264H6.03152V43.693V52.6523V52.6544Z" fill="#101010" stroke="#101010" stroke-width="0.422233"/>
<path id="Vector_4" d="M25.3243 54.4472C25.1737 54.4733 25.0228 54.4886 24.8717 54.4938H24.7518C23.8608 54.4938 22.9951 54.1408 22.3557 53.5014L18.9592 50.1049C18.7993 49.945 18.7993 49.6852 18.9592 49.5254C19.1191 49.3655 19.3789 49.3655 19.5388 49.5254L22.9353 52.9219C23.5244 53.511 24.3638 53.7771 25.1849 53.6372L25.1852 53.6372C25.4077 53.599 25.6203 53.7475 25.6602 53.9733C25.6995 54.1956 25.5513 54.4069 25.3243 54.4472Z" fill="#101010" stroke="#101010" stroke-width="0.422233"/>
</g>
<g id="Group_2">
<path id="Vector_5" d="M38.5222 20.0187H25.3875C24.1061 20.0187 23.0637 18.9762 23.0637 17.6949C23.0637 17.0758 23.3044 16.4937 23.7453 16.0527C24.1843 15.6137 24.7686 15.371 25.3875 15.371H35.2624C35.4896 15.371 35.6726 15.554 35.6726 15.7812C35.6726 16.0084 35.4896 16.1914 35.2624 16.1914H25.3875C24.9876 16.1914 24.6088 16.3484 24.3249 16.6323C24.041 16.9161 23.8841 17.295 23.8841 17.6949C23.8841 18.5239 24.5585 19.1983 25.3875 19.1983H38.5222C38.7494 19.1983 38.9324 19.3813 38.9324 19.6085C38.9324 19.8357 38.7494 20.0187 38.5222 20.0187Z" fill="#101010" stroke="#101010" stroke-width="0.422233"/>
<path id="Vector_6" d="M22.724 12.2278L22.7243 12.2275C23.1634 11.7884 23.7456 11.5458 24.3665 11.5458C24.5937 11.5458 24.7767 11.7288 24.7767 11.956C24.7767 12.1832 24.5937 12.3662 24.3665 12.3662C23.9666 12.3662 23.5878 12.5232 23.3039 12.8071C23.02 13.091 22.8631 13.4698 22.8631 13.8697C22.8631 14.6987 23.5375 15.3731 24.3665 15.3731H35.2624C35.4896 15.3731 35.6726 15.5561 35.6726 15.7833C35.6726 16.0105 35.4896 16.1935 35.2624 16.1935H24.3665C23.0852 16.1935 22.0427 15.151 22.0427 13.8697C22.0427 13.2504 22.2835 12.6664 22.724 12.2278L22.724 12.2278Z" fill="#101010" stroke="#101010" stroke-width="0.422233"/>
<path id="Vector_7" d="M34.8638 15.8867L34.8638 15.8868C35.0157 16.4613 35.3197 16.9877 35.743 17.411L39.6532 21.3212C40.9515 22.6195 42.6769 23.3345 44.5138 23.3345H57.3958C57.623 23.3345 57.806 23.1515 57.806 22.9243V12.7223C57.806 12.4951 57.623 12.3121 57.3958 12.3121H53.525C52.344 12.3121 51.2233 11.8625 50.3681 11.0486L50.3681 11.0486L48.1707 8.9568L48.1707 8.95676C46.988 7.83025 45.4393 7.21112 43.8055 7.21112H22.836C22.1483 7.21112 21.4999 7.47893 21.0136 7.96528C20.5308 8.44805 20.2631 9.08681 20.2574 9.7687L20.2573 9.76874C20.2516 10.4328 20.5158 11.071 21.0059 11.565L34.8638 15.8867ZM34.8638 15.8867C34.5675 14.7678 34.8679 13.5664 35.6494 12.7206L35.9768 12.3662M34.8638 15.8867L35.9768 12.3662M35.9768 12.3662H35.4943M35.9768 12.3662H35.4943M35.4943 12.3662H22.9126M35.4943 12.3662H22.9126M47.4568 9.70687L47.6024 9.55396L49.7998 11.6457L49.7998 11.6458C50.8085 12.6066 52.1294 13.1346 53.5229 13.1346H56.7725H56.9836V13.3457V22.3051V22.5162H56.7725H44.5117C42.8963 22.5162 41.3762 21.8872 40.2328 20.7437L36.3226 16.8335C36.0024 16.5133 35.7722 16.1141 35.6569 15.6803C35.4221 14.7997 35.6771 13.8523 36.3226 13.2068L36.4505 13.0788C36.4506 13.0787 36.4507 13.0787 36.4508 13.0786C36.8273 12.6999 37.3041 12.4511 37.8286 12.3629M47.4568 9.70687L21.1389 10.2268M47.4568 9.70687L47.6024 9.55395C46.5732 8.57436 45.2247 8.03359 43.8034 8.03359H22.8339C22.3656 8.03359 21.9226 8.21748 21.5911 8.54898C21.2618 8.87827 21.0804 9.31435 21.0757 9.77721L21.0704 10.2954L21.1389 10.2268M47.4568 9.70687L21.1389 10.2268M37.8286 12.3629L37.8636 12.5711L37.8285 12.363C37.8285 12.363 37.8286 12.363 37.8286 12.3629ZM37.8286 12.3629C38.0389 12.3274 38.1867 12.1359 38.1689 11.924L38.1689 11.9239C38.1512 11.7106 37.9737 11.5479 37.7601 11.5479H22.9126C22.4216 11.5479 21.9395 11.3418 21.5885 10.9885L21.5885 10.9885C21.3718 10.7702 21.218 10.5084 21.1389 10.2268M22.9126 12.3662C22.2076 12.3662 21.5116 12.0745 21.0059 11.565L22.9126 12.3662Z" fill="#101010" stroke="#101010" stroke-width="0.422233"/>
<path id="Vector_8" d="M43.7263 16.5913C43.6346 16.5822 43.5473 16.543 43.4797 16.4742L43.4797 16.4742L43.4784 16.4729L40.0819 13.0764C39.4928 12.4873 38.6513 12.2212 37.8322 12.3611L37.832 12.3611C37.6096 12.3993 37.3972 12.251 37.3571 12.0255C37.3192 11.8033 37.4675 11.5911 37.6929 11.5511C38.7744 11.3641 39.8836 11.7169 40.6615 12.4948L44.058 15.8913C44.2179 16.0512 44.2179 16.311 44.058 16.4709C43.9769 16.552 43.8738 16.5913 43.7682 16.5913H43.7263Z" fill="#101010" stroke="#101010" stroke-width="0.422233"/>
</g>
<path id="Union" fill-rule="evenodd" clip-rule="evenodd" d="M29.3316 26.4963V24.6113C29.3316 24.2731 29.6047 24 29.943 24C30.2812 24 30.5543 24.2731 30.5543 24.6113V26.4963H33.0769V24.6113C33.0769 24.2731 33.35 24 33.6882 24C34.0265 24 34.2995 24.2731 34.2995 24.6113V26.5016C36.2274 26.6046 37.7657 28.2051 37.7657 30.1601C37.7657 31.1382 37.3846 32.0592 36.6938 32.75C36.5194 32.9244 36.3304 33.079 36.1294 33.2128C37.1149 33.8699 37.7657 34.9915 37.7657 36.2631C37.7657 37.2412 37.3846 38.1623 36.6938 38.853C36.0493 39.4976 35.2043 39.8724 34.2995 39.9197V42.2273C34.2995 42.5655 34.0265 42.8386 33.6882 42.8386C33.35 42.8386 33.0769 42.5655 33.0769 42.2273V39.9248H30.5543V42.2273C30.5543 42.5655 30.2812 42.8386 29.943 42.8386C29.6047 42.8386 29.3316 42.5655 29.3316 42.2273V39.9248H26.6133C26.275 39.9248 26.002 39.6518 26.002 39.3135C26.002 38.9753 26.275 38.7022 26.6133 38.7022H27.5283V33.2605C27.5269 33.2441 27.5263 33.2274 27.5263 33.2107C27.5263 33.1939 27.5269 33.1773 27.5283 33.1609V27.719H26.6113C26.2731 27.719 26 27.4459 26 27.1076C26 26.7694 26.2731 26.4963 26.6113 26.4963H28.1396H29.3316ZM28.7509 33.822V38.7022H34.1039C34.756 38.7022 35.3694 38.4496 35.8299 37.989C36.2904 37.5285 36.5431 36.9152 36.5431 36.2631C36.5431 34.9182 35.4487 33.822 34.1018 33.822H28.7509ZM28.7509 27.719V32.5992H34.1039C34.756 32.5992 35.3694 32.3465 35.8299 31.886C36.2904 31.4255 36.5431 30.8122 36.5431 30.1601C36.5431 28.8152 35.4488 27.719 34.1018 27.719H28.7509Z" fill="url(#paint0_linear_30_1062)"/>
<path id="Vector_9" d="M44.2961 50.2787C44.2373 50.3205 44.1698 50.3446 44.1026 50.3514H44.0602C43.9311 50.3514 43.804 50.2912 43.7231 50.1776C43.5934 49.9928 43.6379 49.7361 43.8228 49.6069L43.8234 49.6065C49.3513 45.7169 52.6509 39.3648 52.6509 32.6168C52.6509 30.757 52.404 28.9096 51.9165 27.1247L51.9164 27.1244C51.8561 26.9053 51.9849 26.6806 52.2025 26.6221L52.2037 26.6217C52.4228 26.5615 52.6475 26.6902 52.706 26.9079L52.7062 26.9087C53.2129 28.7649 53.4713 30.6868 53.4713 32.6168C53.4713 39.6311 50.042 46.2355 44.297 50.278L44.2961 50.2787Z" fill="#101010" stroke="#101010" stroke-width="0.422233"/>
<path id="Vector_10" d="M12.1431 39.2882C12.2131 39.5051 12.0952 39.7357 11.8795 39.8053C11.8494 39.815 11.8202 39.8212 11.7917 39.8241H11.7517C11.5779 39.8241 11.4181 39.7131 11.3622 39.5412C10.665 37.3942 10.3122 35.1505 10.3122 32.8715C10.3122 25.992 13.4783 19.6862 18.9982 15.5652C19.1806 15.4294 19.4376 15.467 19.5725 15.6483C19.7084 15.8308 19.6708 16.0878 19.4895 16.2227L19.4893 16.2229C14.1796 20.1852 11.1326 26.254 11.1326 32.8715C11.1326 35.0636 11.4715 37.2229 12.1431 39.2882Z" fill="#101010" stroke="#101010" stroke-width="0.422233"/>
<path id="Vector_11" d="M11.7413 39.5032L7.91602 37.2085" stroke="#101010" stroke-width="1.2667" stroke-linecap="round" stroke-linejoin="round"/>
<path id="Vector_12" d="M56.6545 29.6201L56.4731 29.512C56.3971 29.6396 56.2608 29.7114 56.1202 29.7114C56.048 29.7114 55.9761 29.6924 55.9104 29.6527L55.9098 29.6524L52.0846 27.3576L52.0844 27.3575C51.891 27.2418 51.827 26.9903 51.9441 26.7933C52.0594 26.5994 52.3099 26.536 52.5077 26.6534C52.5078 26.6534 52.5079 26.6535 52.508 26.6536L56.3326 28.9479L56.3327 28.948C56.5261 29.0637 56.5901 29.3152 56.473 29.5122L56.6545 29.6201ZM56.6545 29.6201C56.8305 29.3239 56.7353 28.9429 56.4412 28.7668L52.6159 26.4721C52.3198 26.2961 51.9387 26.3892 51.7626 26.6854C51.5866 26.9816 51.6819 27.3626 51.976 27.5387L55.8012 29.8334C55.9006 29.8935 56.0104 29.9225 56.1202 29.9225C56.3314 29.9225 56.5385 29.8148 56.6545 29.6201Z" fill="#101010" stroke="#101010" stroke-width="0.422233"/>
</g>
</g>
<defs>
<linearGradient id="paint0_linear_30_1062" x1="25.7871" y1="24.2043" x2="38.2871" y2="42.2043" gradientUnits="userSpaceOnUse">
<stop stop-color="#064567"/>
<stop offset="1" stop-color="#E71139"/>
</linearGradient>
</defs>
</svg>
