<svg width="64" height="64" viewBox="0 0 64 64" fill="none" xmlns="http://www.w3.org/2000/svg">
<g id="icon_03">
<rect width="64" height="64" fill="white"/>
<g id="Group">
<path id="Union" fill-rule="evenodd" clip-rule="evenodd" d="M40.3759 35.4622V26.3581V26.3576L40.3759 26.3522C40.3743 26.1807 40.2996 26.0196 40.1739 25.908C40.1438 25.8812 40.1107 25.8573 40.0751 25.8367L32.042 21.1955C31.8535 21.0872 31.6208 21.0892 31.4343 21.1995L23.5823 25.8393C23.48 25.8993 23.3995 25.9869 23.3482 26.0896C23.3074 26.1706 23.2849 26.2608 23.2849 26.3542C23.2849 26.3576 23.2849 26.3609 23.2849 26.3642V35.6407C23.2849 35.8533 23.3973 36.0499 23.5798 36.1582L31.4239 40.7934C31.4306 40.7975 31.4374 40.8015 31.4443 40.8054C31.5366 40.8576 31.6389 40.8836 31.7412 40.8836C31.8475 40.8836 31.9558 40.8556 32.05 40.7974L32.0876 40.7749M32.3429 39.2189L39.1725 35.1212V27.4211L32.3429 31.5189V39.2189ZM24.4884 27.4342L31.1394 31.5155L31.1394 39.227L24.4884 35.2978V35.2958V27.4342ZM31.7454 30.4739L25.0544 26.368L31.7452 22.415L38.5888 26.3683L31.7454 30.4739Z" fill="url(#paint0_linear_30_1038)"/>
<path id="Vector" d="M17.8373 24.888H9.60172C9.26877 24.888 9 24.6192 9 24.2863V16.0507C9 15.7177 9.26877 15.449 9.60172 15.449H17.8373C18.1703 15.449 18.4391 15.7177 18.4391 16.0507V24.2863C18.4391 24.6192 18.1703 24.888 17.8373 24.888ZM10.2034 23.6845H17.2356V16.6524H10.2034V23.6845Z" fill="#101010"/>
<path id="Vector_2" d="M17.8373 47.1738H9.60172C9.26877 47.1738 9 46.9051 9 46.5721V38.3366C9 38.0036 9.26877 37.7349 9.60172 37.7349H17.8373C18.1703 37.7349 18.4391 38.0036 18.4391 38.3366V46.5721C18.4391 46.9051 18.1703 47.1738 17.8373 47.1738ZM10.2034 45.9704H17.2356V38.9383H10.2034V45.9704Z" fill="#101010"/>
<path id="Vector_3" d="M35.7627 57.3467H27.5271C27.1942 57.3467 26.9254 57.078 26.9254 56.745V48.5094C26.9254 48.1765 27.1942 47.9077 27.5271 47.9077H35.7627C36.0957 47.9077 36.3645 48.1765 36.3645 48.5094V56.745C36.3645 57.078 36.0957 57.3467 35.7627 57.3467ZM28.1289 56.1433H35.161V49.1112H28.1289V56.1433Z" fill="#101010"/>
<path id="Vector_4" d="M35.7627 15.439H27.5271C27.1942 15.439 26.9254 15.1702 26.9254 14.8373V6.60172C26.9254 6.26877 27.1942 6 27.5271 6H35.7627C36.0957 6 36.3645 6.26877 36.3645 6.60172V14.8373C36.3645 15.1702 36.0957 15.439 35.7627 15.439ZM28.1289 14.2356H35.161V7.20344H28.1289V14.2356Z" fill="#101010"/>
<path id="Vector_5" d="M53.9308 24.4026H45.6952C45.3623 24.4026 45.0935 24.1339 45.0935 23.8009V15.5653C45.0935 15.2324 45.3623 14.9636 45.6952 14.9636H53.9308C54.2638 14.9636 54.5326 15.2324 54.5326 15.5653V23.8009C54.5326 24.1339 54.2638 24.4026 53.9308 24.4026ZM46.297 23.1992H53.3291V16.1671H46.297V23.1992Z" fill="#101010"/>
<path id="Vector_6" d="M53.9308 47.1738H45.6952C45.3623 47.1738 45.0935 46.9051 45.0935 46.5721V38.3366C45.0935 38.0036 45.3623 37.7349 45.6952 37.7349H53.9308C54.2638 37.7349 54.5326 38.0036 54.5326 38.3366V46.5721C54.5326 46.9051 54.2638 47.1738 53.9308 47.1738ZM46.297 45.9704H53.3291V38.9383H46.297V45.9704Z" fill="#101010"/>
<path id="Vector_7" d="M45.6952 19.8295C45.5929 19.8295 45.4906 19.8034 45.3944 19.7493L35.4619 14.0149C35.1731 13.8484 35.0748 13.4814 35.2413 13.1925C35.4077 12.9057 35.7748 12.8054 36.0636 12.9719L45.9961 18.7063C46.2849 18.8728 46.3832 19.2398 46.2167 19.5287C46.1044 19.7212 45.9038 19.8295 45.6952 19.8295Z" fill="#101010"/>
<path id="Vector_8" d="M35.7628 50.6537C35.5542 50.6537 35.3516 50.5454 35.2413 50.3528C35.0748 50.066 35.1731 49.6969 35.4619 49.5305L45.3944 43.7961C45.6832 43.6296 46.0502 43.7279 46.2167 44.0167C46.3832 44.3035 46.2849 44.6726 45.9961 44.8391L36.0636 50.5735C35.9693 50.6276 35.865 50.6537 35.7628 50.6537Z" fill="#101010"/>
<path id="Vector_9" d="M13.5411 38.9362C13.2081 38.9362 12.9393 38.6675 12.9393 38.3345V24.2843C12.9393 23.9514 13.2081 23.6826 13.5411 23.6826C13.874 23.6826 14.1428 23.9514 14.1428 24.2843V38.3345C14.1428 38.6675 13.874 38.9362 13.5411 38.9362Z" fill="#101010"/>
<path id="Vector_10" d="M27.527 50.8222C27.4247 50.8222 27.3224 50.7961 27.2262 50.7419L17.5364 45.1459C17.2496 44.9795 17.1493 44.6124 17.3158 44.3236C17.4823 44.0348 17.8493 43.9365 18.1381 44.103L27.8279 49.699C28.1147 49.8654 28.215 50.2325 28.0485 50.5213C27.9362 50.7139 27.7356 50.8222 27.527 50.8222Z" fill="#101010"/>
<path id="Vector_11" d="M49.464 38.9362C49.1311 38.9362 48.8623 38.6675 48.8623 38.3345V23.8009C48.8623 23.468 49.1311 23.1992 49.464 23.1992C49.797 23.1992 50.0658 23.468 50.0658 23.8009V38.3345C50.0658 38.6675 49.797 38.9362 49.464 38.9362Z" fill="#101010"/>
<path id="Vector_12" d="M17.8373 19.5248C17.6287 19.5248 17.4282 19.4165 17.3158 19.224C17.1494 18.9351 17.2476 18.5681 17.5365 18.4016L27.2262 12.8056C27.5151 12.6391 27.8821 12.7374 28.0486 13.0262C28.2151 13.315 28.1168 13.6821 27.828 13.8486L18.1382 19.4446C18.0439 19.4987 17.9396 19.5248 17.8373 19.5248Z" fill="#101010"/>
<path id="Vector_13" d="M21.229 26.8254C21.1287 26.8254 21.0245 26.7994 20.9302 26.7452L17.5385 24.8077C17.2496 24.6432 17.1494 24.2762 17.3138 23.9873C17.4783 23.6985 17.8453 23.5982 18.1342 23.7627L21.5259 25.7002C21.8147 25.8647 21.915 26.2317 21.7505 26.5206C21.6402 26.7151 21.4356 26.8234 21.227 26.8234L21.229 26.8254Z" fill="#101010"/>
<path id="Vector_14" d="M45.6951 38.9382C45.5948 38.9382 45.4905 38.9122 45.3963 38.858L42.0045 36.9204C41.7157 36.756 41.6154 36.3889 41.7799 36.1001C41.9444 35.8113 42.3114 35.711 42.6002 35.8755L45.992 37.813C46.2808 37.9775 46.3811 38.3445 46.2166 38.6334C46.1063 38.8279 45.9017 38.9362 45.6931 38.9362L45.6951 38.9382Z" fill="#101010"/>
<path id="Vector_15" d="M42.1952 25.6361C41.9585 25.6361 41.7358 25.4957 41.6396 25.2651C41.5112 24.9582 41.6576 24.6052 41.9645 24.4788L45.5708 22.9805C45.8777 22.8542 46.2307 22.9986 46.3571 23.3055C46.4855 23.6123 46.339 23.9653 46.0322 24.0917L42.4258 25.59C42.3496 25.6221 42.2714 25.6361 42.1952 25.6361Z" fill="#101010"/>
<path id="Vector_16" d="M17.7972 38.864C17.5785 38.864 17.3679 38.7457 17.2616 38.5391C17.1092 38.2443 17.2255 37.8812 17.5204 37.7288L20.9923 35.9377C21.2872 35.7852 21.6502 35.9016 21.8027 36.1964C21.9551 36.4912 21.8388 36.8543 21.5439 37.0067L18.072 38.7979C17.9837 38.844 17.8894 38.864 17.7972 38.864Z" fill="#101010"/>
<path id="Vector_17" d="M31.6449 49.1255C31.312 49.1255 31.0432 48.8567 31.0432 48.5238V44.6186C31.0432 44.2856 31.312 44.0168 31.6449 44.0168C31.9779 44.0168 32.2467 44.2856 32.2467 44.6186V48.5238C32.2467 48.8567 31.9779 49.1255 31.6449 49.1255Z" fill="#101010"/>
<path id="Vector_18" d="M31.4023 19.33C31.0693 19.33 30.8005 19.0613 30.8005 18.7283V14.8232C30.8005 14.4902 31.0693 14.2214 31.4023 14.2214C31.7352 14.2214 32.004 14.4902 32.004 14.8232V18.7283C32.004 19.0613 31.7352 19.33 31.4023 19.33Z" fill="#101010"/>
</g>
</g>
<defs>
<linearGradient id="paint0_linear_30_1038" x1="27.8139" y1="25.7559" x2="27.8139" y2="40.8837" gradientUnits="userSpaceOnUse">
<stop stop-color="#064567"/>
<stop offset="1" stop-color="#E71139"/>
</linearGradient>
</defs>
</svg>
